<?xml version="1.0" encoding="UTF-8" standalone="no"?>
<!DOCTYPE svg PUBLIC "-//W3C//DTD SVG 1.1//EN" "http://www.w3.org/Graphics/SVG/1.1/DTD/svg11.dtd"><svg width="100%"
    height="100%" viewBox="0 0 1440 2000" version="1.1" xmlns="http://www.w3.org/2000/svg"
    xmlns:xlink="http://www.w3.org/1999/xlink" xml:space="preserve" xmlns:serif="http://www.serif.com/"
    style="fill-rule:evenodd;clip-rule:evenodd;stroke-linejoin:round;stroke-miterlimit:2;">
    <path
        d="M0,1964.38l29.999,-35.624c29.999,-35.624 89.997,-106.872 149.995,-142.496c59.998,-35.624 119.996,-35.624 179.994,5.9c59.998,41.969 119.996,124.349 179.994,136.595c59.998,12.246 119.996,-47.869 179.994,-53.436c59.998,-5.566 119.996,41.19 179.994,59.336c59.998,17.478 119.996,6.346 179.994,-11.8c59.998,-17.478 119.996,-41.969 179.994,-29.724c59.998,12.246 119.996,59.002 149.995,83.16l29.999,23.712l0,-2000l-1439.96,0l0,1964.38l0.007,0.001Z"
        style="fill:#09f;fill-rule:nonzero;" /></svg>